<svg preserveAspectRatio="none" width="100%" height="100%" overflow="visible" style="display: block;" viewBox="0 0 672.132 208" fill="none" xmlns="http://www.w3.org/2000/svg">
<g id="Group 59">
<circle id="Ellipse 37" cx="104" cy="104" r="104" fill="var(--fill-0, #524CAF)"/>
<g id="Conply">
<mask id="path-2-outside-1_0_4" maskUnits="userSpaceOnUse" x="245" y="55" width="428" height="127" fill="black">
<rect fill="white" x="245" y="55" width="428" height="127"/>
<path d="M326.735 85.1493C327.015 86.3611 326.069 87.4857 324.826 87.4857H317.186C316.237 87.4857 315.426 86.8153 315.183 85.8972C314.465 83.1851 313.383 80.7609 311.936 78.6244C310.244 76.0792 308.176 73.9424 305.733 72.2142C303.32 70.4545 300.641 69.1347 297.696 68.2549C294.751 67.3751 291.681 66.9351 288.485 66.9351C282.657 66.9351 277.378 68.412 272.647 71.3658C267.947 74.3195 264.203 78.6716 261.415 84.4219C258.658 90.1723 257.279 97.2268 257.279 105.585C257.279 113.944 258.658 120.998 261.415 126.748C264.203 132.499 267.947 136.851 272.647 139.805C277.378 142.758 282.657 144.235 288.485 144.235C291.681 144.235 294.751 143.795 297.696 142.916C300.641 142.036 303.32 140.732 305.733 139.003C308.176 137.244 310.244 135.091 311.936 132.546C313.381 130.386 314.462 127.96 315.18 125.269C315.425 124.353 316.235 123.685 317.183 123.685H324.823C326.068 123.685 327.013 124.811 326.731 126.023C325.801 130.024 324.362 133.659 322.416 136.929C320.098 140.826 317.215 144.141 313.769 146.875C310.323 149.577 306.453 151.635 302.161 153.049C297.9 154.463 293.341 155.17 288.485 155.17C280.276 155.17 272.976 153.159 266.584 149.137C260.193 145.115 255.164 139.396 251.499 131.98C247.833 124.565 246 115.766 246 105.585C246 95.4042 247.833 86.6058 251.499 79.19C255.164 71.7743 260.193 66.0553 266.584 62.0332C272.976 58.0111 280.276 56 288.485 56C293.341 56 297.9 56.707 302.161 58.121C306.453 59.5351 310.323 61.609 313.769 64.3428C317.215 67.0451 320.098 70.3445 322.416 74.241C324.365 77.4888 325.804 81.1249 326.735 85.1493Z"/>
<path d="M373.866 155.359C367.349 155.359 361.631 153.804 356.712 150.693C351.824 147.582 348.002 143.23 345.245 137.636C342.519 132.043 341.156 125.507 341.156 118.029C341.156 110.487 342.519 103.904 345.245 98.2794C348.002 92.6547 351.824 88.287 356.712 85.1761C361.631 82.0652 367.349 80.5098 373.866 80.5098C380.383 80.5098 386.085 82.0652 390.973 85.1761C395.892 88.287 399.714 92.6547 402.44 98.2794C405.197 103.904 406.575 110.487 406.575 118.029C406.575 125.507 405.197 132.043 402.44 137.636C399.714 143.23 395.892 147.582 390.973 150.693C386.085 153.804 380.383 155.359 373.866 155.359ZM373.866 145.367C378.816 145.367 382.889 144.094 386.085 141.549C389.281 139.003 391.646 135.657 393.181 131.509C394.717 127.361 395.484 122.868 395.484 118.029C395.484 113.19 394.717 108.68 393.181 104.501C391.646 100.322 389.281 96.9439 386.085 94.3673C382.889 91.7906 378.816 90.5023 373.866 90.5023C368.915 90.5023 364.842 91.7906 361.647 94.3673C358.451 96.9439 356.085 100.322 354.55 104.501C353.015 108.68 352.247 113.19 352.247 118.029C352.247 122.868 353.015 127.361 354.55 131.509C356.085 135.657 358.451 139.003 361.647 141.549C364.842 144.094 368.915 145.367 373.866 145.367Z"/>
<path d="M434.597 110.299V151.851C434.597 152.955 433.702 153.851 432.597 153.851H425.506C424.401 153.851 423.506 152.955 423.506 151.851V83.4525C423.506 82.3479 424.401 81.4525 425.506 81.4525H432.221C433.326 81.4525 434.221 82.3479 434.221 83.4525V92.1918C434.221 92.5082 434.478 92.7647 434.794 92.7647C435.018 92.7647 435.22 92.6342 435.317 92.4326C437.009 88.9099 439.526 86.0669 442.868 83.9035C446.315 81.641 450.764 80.5098 456.215 80.5098C461.103 80.5098 465.38 81.5153 469.046 83.5264C472.711 85.506 475.562 88.5226 477.599 92.5762C479.635 96.5983 480.654 101.689 480.654 107.848V151.851C480.654 152.955 479.758 153.851 478.654 153.851H471.562C470.458 153.851 469.562 152.955 469.562 151.851V108.602C469.562 102.914 468.09 98.4837 465.145 95.31C462.2 92.1048 458.158 90.5023 453.02 90.5023C449.479 90.5023 446.315 91.2721 443.526 92.8118C440.769 94.3516 438.592 96.5983 436.994 99.552C435.396 102.506 434.597 106.088 434.597 110.299Z"/>
<path d="M502.921 181C501.816 181 500.921 180.105 500.921 179V83.4525C500.921 82.3479 501.816 81.4525 502.921 81.4525H509.636C510.741 81.4525 511.636 82.3479 511.636 83.4525V92.1007C511.636 92.5716 512.018 92.9532 512.489 92.9532C512.778 92.9532 513.046 92.8068 513.206 92.5658C513.995 91.3724 515.039 89.8989 516.336 88.1455C517.808 86.1659 519.907 84.4062 522.633 82.8665C525.39 81.2954 529.119 80.5098 533.818 80.5098C539.897 80.5098 545.254 82.0338 549.891 85.0818C554.528 88.1298 558.147 92.4505 560.747 98.0437C563.348 103.637 564.648 110.236 564.648 117.84C564.648 125.507 563.348 132.153 560.747 137.778C558.147 143.371 554.544 147.708 549.938 150.787C545.333 153.835 540.022 155.359 534.006 155.359C529.369 155.359 525.657 154.589 522.868 153.049C520.08 151.478 517.934 149.703 516.43 147.723C515.032 145.854 513.932 144.284 513.13 143.012C513.018 142.835 512.825 142.727 512.615 142.727C512.282 142.727 512.012 142.997 512.012 143.33V179C512.012 180.105 511.117 181 510.012 181H502.921ZM511.824 117.652C511.824 123.119 512.623 127.943 514.221 132.122C515.819 136.27 518.153 139.522 521.223 141.879C524.294 144.204 528.054 145.367 532.503 145.367C537.14 145.367 541.009 144.141 544.111 141.69C547.244 139.208 549.594 135.877 551.16 131.698C552.758 127.487 553.557 122.805 553.557 117.652C553.557 112.561 552.774 107.973 551.207 103.888C549.672 99.772 547.338 96.5197 544.205 94.1316C541.103 91.712 537.202 90.5023 532.503 90.5023C527.991 90.5023 524.2 91.6492 521.129 93.9431C518.059 96.2055 515.74 99.3792 514.174 103.464C512.607 107.518 511.824 112.247 511.824 117.652Z"/>
<path d="M590.658 57.3198C591.763 57.3198 592.658 58.2152 592.658 59.3198V151.851C592.658 152.955 591.763 153.851 590.658 153.851H583.567C582.462 153.851 581.567 152.955 581.567 151.851V59.3198C581.567 58.2152 582.462 57.3198 583.567 57.3198H590.658Z"/>
<path d="M620.116 181C618.236 181 616.56 180.843 615.087 180.529C614.527 180.421 614.033 180.314 613.605 180.206C612.671 179.972 612.225 179.009 612.492 178.084L614.315 171.744C614.614 170.704 615.685 170.1 616.748 170.3C618.678 170.663 620.427 170.774 621.996 170.63C624.064 170.442 625.896 169.515 627.494 167.85C629.123 166.216 630.612 163.56 631.959 159.884L633.775 154.916C633.938 154.471 633.937 153.984 633.775 153.54L608.319 84.1412C607.84 82.836 608.806 81.4525 610.197 81.4525H617.939C618.792 81.4525 619.551 81.9934 619.829 82.7996L639.168 138.789C639.241 139.002 639.441 139.145 639.666 139.145C639.891 139.145 640.092 139.002 640.165 138.789L659.504 82.7996C659.782 81.9934 660.541 81.4525 661.394 81.4525H669.129C670.521 81.4525 671.488 82.8395 671.005 84.1455L641.358 164.409C639.98 168.148 638.272 171.243 636.236 173.694C634.199 176.177 631.834 178.015 629.139 179.209C626.476 180.403 623.468 181 620.116 181Z"/>
</mask>
<path d="M326.735 85.1493C327.015 86.3611 326.069 87.4857 324.826 87.4857H317.186C316.237 87.4857 315.426 86.8153 315.183 85.8972C314.465 83.1851 313.383 80.7609 311.936 78.6244C310.244 76.0792 308.176 73.9424 305.733 72.2142C303.32 70.4545 300.641 69.1347 297.696 68.2549C294.751 67.3751 291.681 66.9351 288.485 66.9351C282.657 66.9351 277.378 68.412 272.647 71.3658C267.947 74.3195 264.203 78.6716 261.415 84.4219C258.658 90.1723 257.279 97.2268 257.279 105.585C257.279 113.944 258.658 120.998 261.415 126.748C264.203 132.499 267.947 136.851 272.647 139.805C277.378 142.758 282.657 144.235 288.485 144.235C291.681 144.235 294.751 143.795 297.696 142.916C300.641 142.036 303.32 140.732 305.733 139.003C308.176 137.244 310.244 135.091 311.936 132.546C313.381 130.386 314.462 127.96 315.18 125.269C315.425 124.353 316.235 123.685 317.183 123.685H324.823C326.068 123.685 327.013 124.811 326.731 126.023C325.801 130.024 324.362 133.659 322.416 136.929C320.098 140.826 317.215 144.141 313.769 146.875C310.323 149.577 306.453 151.635 302.161 153.049C297.9 154.463 293.341 155.17 288.485 155.17C280.276 155.17 272.976 153.159 266.584 149.137C260.193 145.115 255.164 139.396 251.499 131.98C247.833 124.565 246 115.766 246 105.585C246 95.4042 247.833 86.6058 251.499 79.19C255.164 71.7743 260.193 66.0553 266.584 62.0332C272.976 58.0111 280.276 56 288.485 56C293.341 56 297.9 56.707 302.161 58.121C306.453 59.5351 310.323 61.609 313.769 64.3428C317.215 67.0451 320.098 70.3445 322.416 74.241C324.365 77.4888 325.804 81.1249 326.735 85.1493Z" fill="var(--fill-0, white)"/>
<path d="M373.866 155.359C367.349 155.359 361.631 153.804 356.712 150.693C351.824 147.582 348.002 143.23 345.245 137.636C342.519 132.043 341.156 125.507 341.156 118.029C341.156 110.487 342.519 103.904 345.245 98.2794C348.002 92.6547 351.824 88.287 356.712 85.1761C361.631 82.0652 367.349 80.5098 373.866 80.5098C380.383 80.5098 386.085 82.0652 390.973 85.1761C395.892 88.287 399.714 92.6547 402.44 98.2794C405.197 103.904 406.575 110.487 406.575 118.029C406.575 125.507 405.197 132.043 402.44 137.636C399.714 143.23 395.892 147.582 390.973 150.693C386.085 153.804 380.383 155.359 373.866 155.359ZM373.866 145.367C378.816 145.367 382.889 144.094 386.085 141.549C389.281 139.003 391.646 135.657 393.181 131.509C394.717 127.361 395.484 122.868 395.484 118.029C395.484 113.19 394.717 108.68 393.181 104.501C391.646 100.322 389.281 96.9439 386.085 94.3673C382.889 91.7906 378.816 90.5023 373.866 90.5023C368.915 90.5023 364.842 91.7906 361.647 94.3673C358.451 96.9439 356.085 100.322 354.55 104.501C353.015 108.68 352.247 113.19 352.247 118.029C352.247 122.868 353.015 127.361 354.55 131.509C356.085 135.657 358.451 139.003 361.647 141.549C364.842 144.094 368.915 145.367 373.866 145.367Z" fill="var(--fill-0, white)"/>
<path d="M434.597 110.299V151.851C434.597 152.955 433.702 153.851 432.597 153.851H425.506C424.401 153.851 423.506 152.955 423.506 151.851V83.4525C423.506 82.3479 424.401 81.4525 425.506 81.4525H432.221C433.326 81.4525 434.221 82.3479 434.221 83.4525V92.1918C434.221 92.5082 434.478 92.7647 434.794 92.7647C435.018 92.7647 435.22 92.6342 435.317 92.4326C437.009 88.9099 439.526 86.0669 442.868 83.9035C446.315 81.641 450.764 80.5098 456.215 80.5098C461.103 80.5098 465.38 81.5153 469.046 83.5264C472.711 85.506 475.562 88.5226 477.599 92.5762C479.635 96.5983 480.654 101.689 480.654 107.848V151.851C480.654 152.955 479.758 153.851 478.654 153.851H471.562C470.458 153.851 469.562 152.955 469.562 151.851V108.602C469.562 102.914 468.09 98.4837 465.145 95.31C462.2 92.1048 458.158 90.5023 453.02 90.5023C449.479 90.5023 446.315 91.2721 443.526 92.8118C440.769 94.3516 438.592 96.5983 436.994 99.552C435.396 102.506 434.597 106.088 434.597 110.299Z" fill="var(--fill-0, white)"/>
<path d="M502.921 181C501.816 181 500.921 180.105 500.921 179V83.4525C500.921 82.3479 501.816 81.4525 502.921 81.4525H509.636C510.741 81.4525 511.636 82.3479 511.636 83.4525V92.1007C511.636 92.5716 512.018 92.9532 512.489 92.9532C512.778 92.9532 513.046 92.8068 513.206 92.5658C513.995 91.3724 515.039 89.8989 516.336 88.1455C517.808 86.1659 519.907 84.4062 522.633 82.8665C525.39 81.2954 529.119 80.5098 533.818 80.5098C539.897 80.5098 545.254 82.0338 549.891 85.0818C554.528 88.1298 558.147 92.4505 560.747 98.0437C563.348 103.637 564.648 110.236 564.648 117.84C564.648 125.507 563.348 132.153 560.747 137.778C558.147 143.371 554.544 147.708 549.938 150.787C545.333 153.835 540.022 155.359 534.006 155.359C529.369 155.359 525.657 154.589 522.868 153.049C520.08 151.478 517.934 149.703 516.43 147.723C515.032 145.854 513.932 144.284 513.13 143.012C513.018 142.835 512.825 142.727 512.615 142.727C512.282 142.727 512.012 142.997 512.012 143.33V179C512.012 180.105 511.117 181 510.012 181H502.921ZM511.824 117.652C511.824 123.119 512.623 127.943 514.221 132.122C515.819 136.27 518.153 139.522 521.223 141.879C524.294 144.204 528.054 145.367 532.503 145.367C537.14 145.367 541.009 144.141 544.111 141.69C547.244 139.208 549.594 135.877 551.16 131.698C552.758 127.487 553.557 122.805 553.557 117.652C553.557 112.561 552.774 107.973 551.207 103.888C549.672 99.772 547.338 96.5197 544.205 94.1316C541.103 91.712 537.202 90.5023 532.503 90.5023C527.991 90.5023 524.2 91.6492 521.129 93.9431C518.059 96.2055 515.74 99.3792 514.174 103.464C512.607 107.518 511.824 112.247 511.824 117.652Z" fill="var(--fill-0, white)"/>
<path d="M590.658 57.3198C591.763 57.3198 592.658 58.2152 592.658 59.3198V151.851C592.658 152.955 591.763 153.851 590.658 153.851H583.567C582.462 153.851 581.567 152.955 581.567 151.851V59.3198C581.567 58.2152 582.462 57.3198 583.567 57.3198H590.658Z" fill="var(--fill-0, white)"/>
<path d="M620.116 181C618.236 181 616.56 180.843 615.087 180.529C614.527 180.421 614.033 180.314 613.605 180.206C612.671 179.972 612.225 179.009 612.492 178.084L614.315 171.744C614.614 170.704 615.685 170.1 616.748 170.3C618.678 170.663 620.427 170.774 621.996 170.63C624.064 170.442 625.896 169.515 627.494 167.85C629.123 166.216 630.612 163.56 631.959 159.884L633.775 154.916C633.938 154.471 633.937 153.984 633.775 153.54L608.319 84.1412C607.84 82.836 608.806 81.4525 610.197 81.4525H617.939C618.792 81.4525 619.551 81.9934 619.829 82.7996L639.168 138.789C639.241 139.002 639.441 139.145 639.666 139.145C639.891 139.145 640.092 139.002 640.165 138.789L659.504 82.7996C659.782 81.9934 660.541 81.4525 661.394 81.4525H669.129C670.521 81.4525 671.488 82.8395 671.005 84.1455L641.358 164.409C639.98 168.148 638.272 171.243 636.236 173.694C634.199 176.177 631.834 178.015 629.139 179.209C626.476 180.403 623.468 181 620.116 181Z" fill="var(--fill-0, white)"/>
<path d="M326.735 85.1493C327.015 86.3611 326.069 87.4857 324.826 87.4857H317.186C316.237 87.4857 315.426 86.8153 315.183 85.8972C314.465 83.1851 313.383 80.7609 311.936 78.6244C310.244 76.0792 308.176 73.9424 305.733 72.2142C303.32 70.4545 300.641 69.1347 297.696 68.2549C294.751 67.3751 291.681 66.9351 288.485 66.9351C282.657 66.9351 277.378 68.412 272.647 71.3658C267.947 74.3195 264.203 78.6716 261.415 84.4219C258.658 90.1723 257.279 97.2268 257.279 105.585C257.279 113.944 258.658 120.998 261.415 126.748C264.203 132.499 267.947 136.851 272.647 139.805C277.378 142.758 282.657 144.235 288.485 144.235C291.681 144.235 294.751 143.795 297.696 142.916C300.641 142.036 303.32 140.732 305.733 139.003C308.176 137.244 310.244 135.091 311.936 132.546C313.381 130.386 314.462 127.96 315.18 125.269C315.425 124.353 316.235 123.685 317.183 123.685H324.823C326.068 123.685 327.013 124.811 326.731 126.023C325.801 130.024 324.362 133.659 322.416 136.929C320.098 140.826 317.215 144.141 313.769 146.875C310.323 149.577 306.453 151.635 302.161 153.049C297.9 154.463 293.341 155.17 288.485 155.17C280.276 155.17 272.976 153.159 266.584 149.137C260.193 145.115 255.164 139.396 251.499 131.98C247.833 124.565 246 115.766 246 105.585C246 95.4042 247.833 86.6058 251.499 79.19C255.164 71.7743 260.193 66.0553 266.584 62.0332C272.976 58.0111 280.276 56 288.485 56C293.341 56 297.9 56.707 302.161 58.121C306.453 59.5351 310.323 61.609 313.769 64.3428C317.215 67.0451 320.098 70.3445 322.416 74.241C324.365 77.4888 325.804 81.1249 326.735 85.1493Z" stroke="var(--stroke-0, white)" stroke-width="2" mask="url(#path-2-outside-1_0_4)"/>
<path d="M373.866 155.359C367.349 155.359 361.631 153.804 356.712 150.693C351.824 147.582 348.002 143.23 345.245 137.636C342.519 132.043 341.156 125.507 341.156 118.029C341.156 110.487 342.519 103.904 345.245 98.2794C348.002 92.6547 351.824 88.287 356.712 85.1761C361.631 82.0652 367.349 80.5098 373.866 80.5098C380.383 80.5098 386.085 82.0652 390.973 85.1761C395.892 88.287 399.714 92.6547 402.44 98.2794C405.197 103.904 406.575 110.487 406.575 118.029C406.575 125.507 405.197 132.043 402.44 137.636C399.714 143.23 395.892 147.582 390.973 150.693C386.085 153.804 380.383 155.359 373.866 155.359ZM373.866 145.367C378.816 145.367 382.889 144.094 386.085 141.549C389.281 139.003 391.646 135.657 393.181 131.509C394.717 127.361 395.484 122.868 395.484 118.029C395.484 113.19 394.717 108.68 393.181 104.501C391.646 100.322 389.281 96.9439 386.085 94.3673C382.889 91.7906 378.816 90.5023 373.866 90.5023C368.915 90.5023 364.842 91.7906 361.647 94.3673C358.451 96.9439 356.085 100.322 354.55 104.501C353.015 108.68 352.247 113.19 352.247 118.029C352.247 122.868 353.015 127.361 354.55 131.509C356.085 135.657 358.451 139.003 361.647 141.549C364.842 144.094 368.915 145.367 373.866 145.367Z" stroke="var(--stroke-0, white)" stroke-width="2" mask="url(#path-2-outside-1_0_4)"/>
<path d="M434.597 110.299V151.851C434.597 152.955 433.702 153.851 432.597 153.851H425.506C424.401 153.851 423.506 152.955 423.506 151.851V83.4525C423.506 82.3479 424.401 81.4525 425.506 81.4525H432.221C433.326 81.4525 434.221 82.3479 434.221 83.4525V92.1918C434.221 92.5082 434.478 92.7647 434.794 92.7647C435.018 92.7647 435.22 92.6342 435.317 92.4326C437.009 88.9099 439.526 86.0669 442.868 83.9035C446.315 81.641 450.764 80.5098 456.215 80.5098C461.103 80.5098 465.38 81.5153 469.046 83.5264C472.711 85.506 475.562 88.5226 477.599 92.5762C479.635 96.5983 480.654 101.689 480.654 107.848V151.851C480.654 152.955 479.758 153.851 478.654 153.851H471.562C470.458 153.851 469.562 152.955 469.562 151.851V108.602C469.562 102.914 468.09 98.4837 465.145 95.31C462.2 92.1048 458.158 90.5023 453.02 90.5023C449.479 90.5023 446.315 91.2721 443.526 92.8118C440.769 94.3516 438.592 96.5983 436.994 99.552C435.396 102.506 434.597 106.088 434.597 110.299Z" stroke="var(--stroke-0, white)" stroke-width="2" mask="url(#path-2-outside-1_0_4)"/>
<path d="M502.921 181C501.816 181 500.921 180.105 500.921 179V83.4525C500.921 82.3479 501.816 81.4525 502.921 81.4525H509.636C510.741 81.4525 511.636 82.3479 511.636 83.4525V92.1007C511.636 92.5716 512.018 92.9532 512.489 92.9532C512.778 92.9532 513.046 92.8068 513.206 92.5658C513.995 91.3724 515.039 89.8989 516.336 88.1455C517.808 86.1659 519.907 84.4062 522.633 82.8665C525.39 81.2954 529.119 80.5098 533.818 80.5098C539.897 80.5098 545.254 82.0338 549.891 85.0818C554.528 88.1298 558.147 92.4505 560.747 98.0437C563.348 103.637 564.648 110.236 564.648 117.84C564.648 125.507 563.348 132.153 560.747 137.778C558.147 143.371 554.544 147.708 549.938 150.787C545.333 153.835 540.022 155.359 534.006 155.359C529.369 155.359 525.657 154.589 522.868 153.049C520.08 151.478 517.934 149.703 516.43 147.723C515.032 145.854 513.932 144.284 513.13 143.012C513.018 142.835 512.825 142.727 512.615 142.727C512.282 142.727 512.012 142.997 512.012 143.33V179C512.012 180.105 511.117 181 510.012 181H502.921ZM511.824 117.652C511.824 123.119 512.623 127.943 514.221 132.122C515.819 136.27 518.153 139.522 521.223 141.879C524.294 144.204 528.054 145.367 532.503 145.367C537.14 145.367 541.009 144.141 544.111 141.69C547.244 139.208 549.594 135.877 551.16 131.698C552.758 127.487 553.557 122.805 553.557 117.652C553.557 112.561 552.774 107.973 551.207 103.888C549.672 99.772 547.338 96.5197 544.205 94.1316C541.103 91.712 537.202 90.5023 532.503 90.5023C527.991 90.5023 524.2 91.6492 521.129 93.9431C518.059 96.2055 515.74 99.3792 514.174 103.464C512.607 107.518 511.824 112.247 511.824 117.652Z" stroke="var(--stroke-0, white)" stroke-width="2" mask="url(#path-2-outside-1_0_4)"/>
<path d="M590.658 57.3198C591.763 57.3198 592.658 58.2152 592.658 59.3198V151.851C592.658 152.955 591.763 153.851 590.658 153.851H583.567C582.462 153.851 581.567 152.955 581.567 151.851V59.3198C581.567 58.2152 582.462 57.3198 583.567 57.3198H590.658Z" stroke="var(--stroke-0, white)" stroke-width="2" mask="url(#path-2-outside-1_0_4)"/>
<path d="M620.116 181C618.236 181 616.56 180.843 615.087 180.529C614.527 180.421 614.033 180.314 613.605 180.206C612.671 179.972 612.225 179.009 612.492 178.084L614.315 171.744C614.614 170.704 615.685 170.1 616.748 170.3C618.678 170.663 620.427 170.774 621.996 170.63C624.064 170.442 625.896 169.515 627.494 167.85C629.123 166.216 630.612 163.56 631.959 159.884L633.775 154.916C633.938 154.471 633.937 153.984 633.775 153.54L608.319 84.1412C607.84 82.836 608.806 81.4525 610.197 81.4525H617.939C618.792 81.4525 619.551 81.9934 619.829 82.7996L639.168 138.789C639.241 139.002 639.441 139.145 639.666 139.145C639.891 139.145 640.092 139.002 640.165 138.789L659.504 82.7996C659.782 81.9934 660.541 81.4525 661.394 81.4525H669.129C670.521 81.4525 671.488 82.8395 671.005 84.1455L641.358 164.409C639.98 168.148 638.272 171.243 636.236 173.694C634.199 176.177 631.834 178.015 629.139 179.209C626.476 180.403 623.468 181 620.116 181Z" stroke="var(--stroke-0, white)" stroke-width="2" mask="url(#path-2-outside-1_0_4)"/>
</g>
<path id="C" d="M102.374 159.639C91.6774 159.066 82.4817 156.554 74.7872 152.104C67.0976 147.559 61.341 141.428 57.5174 133.71C53.6939 125.991 52.0479 117.168 52.5795 107.241C53.3167 93.4744 56.4431 81.3851 61.9587 70.9735C67.5643 60.5667 74.7922 52.6887 83.6426 47.3395C92.498 41.8967 102.139 39.4545 112.566 40.0129C122.274 40.5327 129.505 43.5497 134.258 49.0638C139.016 54.4842 141.167 61.4557 140.71 69.978C140.404 75.6908 139.17 80.2268 137.007 83.5861C134.933 86.9501 132.099 88.5359 128.503 88.3434C125.987 88.2086 124.042 87.4939 122.669 86.1994C121.296 84.9049 120.672 83.087 120.797 80.7457C120.842 79.9029 121.105 78.3672 121.585 76.1388C122.274 73.3581 122.665 71.1249 122.755 69.4392C123.211 60.9168 119.08 56.4221 110.36 55.9552C104.428 55.6375 98.657 57.3478 93.048 61.086C87.439 64.8243 82.7609 70.5377 79.0138 78.2265C75.2716 85.8215 73.1122 95.004 72.5354 105.774C71.9336 117.012 74.4785 125.883 80.1701 132.387C85.8666 138.797 94.6027 142.317 106.378 142.948C112.221 143.261 118.149 142.827 124.162 141.646C130.269 140.376 137.049 138.344 144.501 135.55C145.879 135.06 147.018 134.84 147.917 134.888C149.355 134.965 150.403 135.584 151.062 136.747C151.721 137.909 152.003 139.38 151.908 141.159C151.602 146.872 148.41 150.928 142.332 153.326C135.794 155.887 129.027 157.685 122.03 158.719C115.129 159.665 108.577 159.971 102.374 159.639Z" fill="var(--fill-0, white)"/>
</g>
</svg>
