<svg xmlns="http://www.w3.org/2000/svg" viewBox="0 0 200 200" width="200" height="200">
  <circle cx="100" cy="100" r="90" fill="#2c2c54"/>
  <!-- Shield -->
  <path d="M100,38 L152,62 L152,110 Q152,152 100,172 Q48,152 48,110 L48,62 Z" fill="#4a4a8a" stroke="#C9A84C" stroke-width="2"/>
  <!-- Padlock body -->
  <rect x="80" y="95" width="40" height="32" rx="5" fill="#ffffff"/>
  <!-- Padlock shackle -->
  <path d="M88,95 L88,80 Q88,65 100,65 Q112,65 112,80 L112,95" fill="none" stroke="#ffffff" stroke-width="5" stroke-linecap="round"/>
  <!-- Keyhole -->
  <circle cx="100" cy="108" r="6" fill="#2c2c54"/>
  <rect x="97" y="111" width="6" height="8" rx="1" fill="#2c2c54"/>
  <!-- Stars / dots for data -->
  <circle cx="68" cy="72" r="3" fill="#C9A84C" opacity="0.7"/>
  <circle cx="80" cy="58" r="2" fill="#C9A84C" opacity="0.5"/>
  <circle cx="132" cy="72" r="3" fill="#C9A84C" opacity="0.7"/>
  <circle cx="120" cy="58" r="2" fill="#C9A84C" opacity="0.5"/>
  <!-- Label -->
  <text x="100" y="158" font-family="Arial, sans-serif" font-size="9" font-weight="bold" fill="#C9A84C" text-anchor="middle" letter-spacing="0.5">DATA PROTECTION</text>
  <text x="100" y="171" font-family="Arial, sans-serif" font-size="8" fill="#ffffff" text-anchor="middle">Act · Gibraltar</text>
</svg>
