<svg xmlns="http://www.w3.org/2000/svg" viewBox="0 0 200 200" width="200" height="200">
  <circle cx="100" cy="100" r="90" fill="#0f2a4a"/>
  <!-- Central node -->
  <circle cx="100" cy="100" r="14" fill="#4A90D9" stroke="#ffffff" stroke-width="2"/>
  <!-- Surrounding nodes -->
  <circle cx="100" cy="42" r="10" fill="#C9A84C" stroke="#ffffff" stroke-width="1.5"/>
  <circle cx="152" cy="72" r="10" fill="#C9A84C" stroke="#ffffff" stroke-width="1.5"/>
  <circle cx="152" cy="128" r="10" fill="#C9A84C" stroke="#ffffff" stroke-width="1.5"/>
  <circle cx="100" cy="158" r="10" fill="#C9A84C" stroke="#ffffff" stroke-width="1.5"/>
  <circle cx="48" cy="128" r="10" fill="#C9A84C" stroke="#ffffff" stroke-width="1.5"/>
  <circle cx="48" cy="72" r="10" fill="#C9A84C" stroke="#ffffff" stroke-width="1.5"/>
  <!-- Connecting lines -->
  <line x1="100" y1="86" x2="100" y2="52" stroke="#4A90D9" stroke-width="1.5" opacity="0.8"/>
  <line x1="113" y1="93" x2="143" y2="77" stroke="#4A90D9" stroke-width="1.5" opacity="0.8"/>
  <line x1="113" y1="107" x2="143" y2="123" stroke="#4A90D9" stroke-width="1.5" opacity="0.8"/>
  <line x1="100" y1="114" x2="100" y2="148" stroke="#4A90D9" stroke-width="1.5" opacity="0.8"/>
  <line x1="87" y1="107" x2="57" y2="123" stroke="#4A90D9" stroke-width="1.5" opacity="0.8"/>
  <line x1="87" y1="93" x2="57" y2="77" stroke="#4A90D9" stroke-width="1.5" opacity="0.8"/>
  <!-- Outer ring connections -->
  <line x1="108" y1="45" x2="143" y2="65" stroke="#C9A84C" stroke-width="1" opacity="0.5"/>
  <line x1="152" y1="82" x2="152" y2="118" stroke="#C9A84C" stroke-width="1" opacity="0.5"/>
  <line x1="143" y1="133" x2="108" y2="153" stroke="#C9A84C" stroke-width="1" opacity="0.5"/>
  <line x1="92" y1="153" x2="57" y2="133" stroke="#C9A84C" stroke-width="1" opacity="0.5"/>
  <line x1="48" y1="118" x2="48" y2="82" stroke="#C9A84C" stroke-width="1" opacity="0.5"/>
  <line x1="57" y1="65" x2="92" y2="45" stroke="#C9A84C" stroke-width="1" opacity="0.5"/>
  <!-- Labels -->
  <text x="100" y="174" font-family="Arial, sans-serif" font-size="10" font-weight="bold" fill="#C9A84C" text-anchor="middle" letter-spacing="1">DLT REGULATIONS</text>
  <text x="100" y="187" font-family="Arial, sans-serif" font-size="8" fill="#ffffff" text-anchor="middle">2020</text>
</svg>
