<svg xmlns="http://www.w3.org/2000/svg" viewBox="0 0 200 200" width="200" height="200">
  <circle cx="100" cy="100" r="90" fill="#1a1a2e"/>
  <!-- Balance scales -->
  <!-- Centre post -->
  <rect x="98" y="55" width="4" height="80" fill="#C9A84C"/>
  <!-- Crossbar -->
  <rect x="55" y="68" width="90" height="3" fill="#C9A84C"/>
  <!-- Left pan -->
  <path d="M55,71 Q45,95 65,98 Q75,101 85,98 Q95,95 75,71 Z" fill="none" stroke="#C9A84C" stroke-width="2"/>
  <line x1="55" y1="71" x2="70" y2="71" stroke="#C9A84C" stroke-width="2"/>
  <!-- Right pan -->
  <path d="M125,71 Q115,95 135,98 Q145,101 155,98 Q165,95 145,71 Z" fill="none" stroke="#C9A84C" stroke-width="2"/>
  <line x1="130" y1="71" x2="145" y2="71" stroke="#C9A84C" stroke-width="2"/>
  <!-- Base -->
  <rect x="80" y="135" width="40" height="5" rx="2" fill="#C9A84C"/>
  <rect x="88" y="130" width="24" height="6" rx="1" fill="#C9A84C"/>
  <!-- Gavel -->
  <rect x="62" y="118" width="28" height="10" rx="3" fill="#ffffff" transform="rotate(-35 76 123)"/>
  <rect x="72" y="125" width="5" height="22" rx="2" fill="#ffffff" transform="rotate(-35 74 136)"/>
  <!-- Text -->
  <text x="100" y="158" font-family="Georgia, serif" font-size="10" font-weight="bold" fill="#C9A84C" text-anchor="middle" letter-spacing="1">GAMBLING ACT</text>
  <text x="100" y="172" font-family="Georgia, serif" font-size="12" font-weight="bold" fill="#ffffff" text-anchor="middle">2025</text>
</svg>
